# xmcd CD database file
#
# Track frame offsets:
#	150
#	25568
#	34265
#	51938
#	75944
#	96206
#	114453
#	133448
#	148365
#	165521
#
# Disc length: 2628 seconds
#
# Revision: 0
# Processed by: cddbd v1.5.2PL0 Copyright (c) Steve Scherf et al.
# Submitted via: CDex 1.70beta2
#
DISCID=830a420a
DTITLE=Dark PHOENiX - ShotShell II
DYEAR=2009
DGENRE=東方アレンジ
TTITLE0=無何有の郷
TTITLE1=青空の影
TTITLE2=東方妖恋談
TTITLE3=春の湊に
TTITLE4=蠢々秋月
TTITLE5=遠野幻想物語
TTITLE6=小さな小さな賢将
TTITLE7=封じられた妖怪
TTITLE8=閉ざせし雲の通い路
TTITLE9=幼心地の有頂天
EXTD=YEAR: 2009
EXTT0=
EXTT1=
EXTT2=
EXTT3=
EXTT4=
EXTT5=
EXTT6=
EXTT7=
EXTT8=
EXTT9=
PLAYORDER=
